<svg width="256" height="256" viewBox="0 0 256 256" fill="none" xmlns="http://www.w3.org/2000/svg">
  <!-- Favicon simplifié Hikube - géométrie du logo -->
  <rect width="256" height="256" fill="#1E40AF" rx="32"/>
  
  <!-- Forme géométrique inspirée du logo Hikube -->
  <path d="M128 40L200 80V80L128 20L128 40Z" fill="url(#paint0_linear)"/>
  <path d="M56 120L128 88L128 20L56 60L56 120Z" fill="url(#paint1_linear)"/>
  <path d="M56 120L128 160V88L56 120Z" fill="url(#paint2_linear)"/>
  <path d="M200 100L128 140V88L200 60L200 100Z" fill="url(#paint3_linear)"/>
  <path d="M200 180L128 220V200L200 160L200 180Z" fill="url(#paint4_linear)"/>
  <path d="M128 140L100 155L100 140L128 125L128 140Z" fill="url(#paint5_linear)"/>
  <path d="M128 100L80 130L128 160L175 130L128 100Z" fill="url(#paint6_radial)"/>
  
  <defs>
    <linearGradient id="paint0_linear" x1="128" y1="20" x2="200" y2="80" gradientUnits="userSpaceOnUse">
      <stop stop-color="#38BA6A"/>
      <stop offset="1" stop-color="#22C55E"/>
    </linearGradient>
    <linearGradient id="paint1_linear" x1="56" y1="60" x2="128" y2="120" gradientUnits="userSpaceOnUse">
      <stop stop-color="#06B6D4"/>
      <stop offset="1" stop-color="#0EA5E9"/>
    </linearGradient>
    <linearGradient id="paint2_linear" x1="56" y1="120" x2="128" y2="160" gradientUnits="userSpaceOnUse">
      <stop stop-color="#8B5CF6"/>
      <stop offset="1" stop-color="#A855F7"/>
    </linearGradient>
    <linearGradient id="paint3_linear" x1="200" y1="60" x2="128" y2="140" gradientUnits="userSpaceOnUse">
      <stop stop-color="#F59E0B"/>
      <stop offset="1" stop-color="#EAB308"/>
    </linearGradient>
    <linearGradient id="paint4_linear" x1="200" y1="160" x2="128" y2="220" gradientUnits="userSpaceOnUse">
      <stop stop-color="#EF4444"/>
      <stop offset="1" stop-color="#F97316"/>
    </linearGradient>
    <linearGradient id="paint5_linear" x1="128" y1="125" x2="100" y2="155" gradientUnits="userSpaceOnUse">
      <stop stop-color="#10B981"/>
      <stop offset="1" stop-color="#059669"/>
    </linearGradient>
    <radialGradient id="paint6_radial" cx="128" cy="130" r="47.5" gradientUnits="userSpaceOnUse">
      <stop stop-color="#FFFFFF" stop-opacity="0.8"/>
      <stop offset="1" stop-color="#E5E7EB" stop-opacity="0.4"/>
    </radialGradient>
  </defs>
</svg> 