<svg xmlns="http://www.w3.org/2000/svg" viewBox="0 0 722 702" fill="none">
  <path d="M361 0L694 171.5V530.5L361 702L28 530.5V171.5L361 0Z" fill="#326CE5"/>
  <path d="M361 132C348.3 132 338 142.3 338 155V161.8L299.3 186.2C295.5 183.2 290.7 181.5 285.5 181.5C274.2 181.5 265 190.7 265 202C265 207.3 267 212.1 270.2 215.8L248 263.5C243.5 262.2 238.8 262.5 234.5 264.5C224.3 269.2 219.8 281.2 224.5 291.3C229.2 301.5 241.2 306 251.3 301.3C261.5 296.5 266 284.5 261.3 274.3L283.5 226.8C287 227.5 290.7 227.5 294.2 226.5L322.3 302.5C313.2 310 308 321.3 308 334C308 355.8 324.5 374 346 378V400C346 408.3 352.7 415 361 415C369.3 415 376 408.3 376 400V378C397.5 374 414 355.8 414 334C414 321.3 408.8 310 399.7 302.5L427.8 226.5C431.3 227.5 435 227.5 438.5 226.8L460.7 274.3C456 284.5 460.5 296.5 470.7 301.3C480.8 306 492.8 301.5 497.5 291.3C502.2 281.2 497.7 269.2 487.5 264.5C483.2 262.5 478.5 262.2 474 263.5L451.8 215.8C455 212.1 457 207.3 457 202C457 190.7 447.8 181.5 436.5 181.5C431.3 181.5 426.5 183.2 422.7 186.2L384 161.8V155C384 142.3 373.7 132 361 132ZM361 296C382 296 399 313 399 334C399 355 382 372 361 372C340 372 323 355 323 334C323 313 340 296 361 296Z" fill="white"/>
</svg>
