<svg xmlns="http://www.w3.org/2000/svg" viewBox="0 0 128 128">
  <path d="M116.9 120.5s-2.3-1.6-4-1.8c-1.7-.2-4.2-.3-7.6.2-3.4.5-5.8 1.2-5.8 1.2s3-1.5 6.7-2.3c3.7-.8 5.5-.6 7.5-.3s4.7 1.4 4.7 1.4l-1.5 1.6z" fill="#00618A"/>
  <path d="M2 97.6c0-.2 1.3-1 3.4-2.4 2.1-1.4 5.3-3.3 9.6-5 4.3-1.7 6.4-2 10.4-2.6 4-.6 7.9-.8 10.1-.4 2.2.4 4.7 1.6 6.2 2.8 1.5 1.2 2.6 2 4 5.4 1.4 3.4 3 9.4 3.8 12.8.8 3.4.8 4.4 1 5.4.2 1 .6 2.4.6 2.4s-.8-1.2-1.8-3.8c-1-2.6-2.4-6.8-4-11.2-1.6-4.4-2.5-6.3-4.3-8.4-1.8-2.1-2.8-2.4-5.8-2.8-3-.4-8-.2-11.2.4-3.2.6-7.4 2.3-10.2 3.8-2.8 1.5-6 3.4-7.6 4.4-1.6 1-.8.2-1.2.4-.4.2-3.2 2.2-3 .8z" fill="#00618A"/>
  <ellipse cx="64" cy="40" rx="42" ry="20" fill="none" stroke="#00618A" stroke-width="4"/>
  <path d="M22 40v40c0 11 18.8 20 42 20s42-9 42-20V40" fill="none" stroke="#00618A" stroke-width="4"/>
  <path d="M22 60c0 11 18.8 20 42 20s42-9 42-20" fill="none" stroke="#00618A" stroke-width="4"/>
  <path d="M22 80c0 11 18.8 20 42 20s42-9 42-20" fill="none" stroke="#00618A" stroke-width="4" stroke-dasharray="0"/>
</svg>
