<svg xmlns="http://www.w3.org/2000/svg" viewBox="0 0 128 128">
  <path d="M93.8 33.2C90.2 28.6 85 25.6 79.2 24.8C77.6 24.6 74.2 24.6 72.4 24.8C69 25.2 66 26.2 63.2 28C62.2 28.6 60.2 30 60 30.2L59.6 30.4L57.4 30C51.6 29 46 29.8 41.2 32.4C38.2 34 35.6 36.4 33.8 39.4C31.6 43 30.6 47.2 30.6 52.8C30.8 62 32.8 72.4 36 80.8C37.8 85.6 40 89.6 42.2 92.2C44.8 95.2 47.4 96.4 50 96C51.4 95.8 52.8 95 54.2 93.6C54.6 93.2 54.8 93 54.8 93L55 93.4C55.8 94.8 57.2 95.6 59 96C59.6 96.2 60 96.2 61.2 96.2C63.4 96.2 65.2 95.6 67.4 94.2L68 93.8L68.2 94.4C68.6 95.6 69.4 96.6 70.4 97.2C71.2 97.6 71.6 97.8 73 98.2C74.2 98.6 75.8 99 77 99.2C79.2 99.4 81.8 99.4 83.6 98.8C90.6 96.8 95 91 97 81.8C97.4 80 97.6 78.8 98 75.6L98.2 74.2L99 73.8C101 72.6 102.6 70.6 103.6 68.2C104.2 66.6 104.4 65.6 104.4 63.6C104.4 61.6 104.2 60.6 103.6 59C102.4 55.8 99.8 53.4 96.6 52.4L95.6 52L95.6 51C95.4 47 94.6 43.2 93.2 40C93.2 39.8 93 39.4 92.8 39L92.8 38.6L93.2 38C94.4 36.4 94.6 35 93.8 33.2Z" fill="#336791"/>
  <path d="M91.4 35.6C91 34.4 90.4 34 90.4 34C91 35 89 37.2 88.8 37.4C87.4 39.2 85.8 41.6 84.8 44.4C83.6 47.6 83.2 51 83.4 55.4L83.6 56.8L82 57.2C79.6 57.8 78 58.8 76.8 60.2C74.8 62.4 74.4 65.4 75.8 67.4C78.2 71 84 70 86 66.2C87 64.2 87.4 61.2 87.2 56.8L87 55.8L88 55.4C89 55.2 89.8 55.2 90.2 55.2C94.2 55.4 97 57.4 98 61.4C99 65.4 97.8 69.4 94.8 71.4C94.4 71.6 94 71.8 93.6 72L93 72.4L92.8 73.4C92.4 75.8 92 78.2 91.4 80.2C89.6 88.2 86 93.2 80.8 95.2C80.8 95.2 76.4 96.6 72.4 95C71.2 94.4 70.6 93.8 70.4 93L70 91.6L71.2 91C73 90 74.4 88.4 75.2 86.4C76.4 83.2 76.2 79.8 74.8 75.2C74.2 73.2 73.4 71.4 72.2 69.2L66 57.6C64.6 55 63.6 52.8 62.8 50.6C61.2 46.2 61 42.6 62.2 39.4C63.4 36.4 65.8 34.2 69.6 32.8C73.4 31.4 77.4 31.6 80.8 33.2C84.4 34.8 87 37.8 88.8 41.4L88.8 37.4C89.4 36.6 90.4 35.6 91.4 35.6Z" fill="white" fill-opacity="0.3"/>
</svg>
